HIERARCHY
ROOT root     
{
	OFFSET 0.0000 0.0000 0.0000
	CHANNELS 6 Xposition Yposition Zposition Zrotation Yrotation Xrotation
	JOINT pelvis   
	{
		OFFSET 0.0000 0.0000 0.0000
		CHANNELS 3 Zrotation Yrotation Xrotation
		JOINT thorax   
		{
			OFFSET 0.0000 23.0750 -5.0000
			CHANNELS 3 Zrotation Yrotation Xrotation
			JOINT rclavicle
			{
				OFFSET 0.0000 28.0009 0.0000
				CHANNELS 3 Zrotation Yrotation Xrotation
				JOINT rhumerus 
				{
					OFFSET -18.5725 5.5939 0.0000
					CHANNELS 3 Zrotation Yrotation Xrotation
					JOINT rradius  
					{
						OFFSET -24.8459 0.0000 0.0000
						CHANNELS 3 Zrotation Yrotation Xrotation
						JOINT rhand    
						{
							OFFSET -24.5477 0.0000 0.0000
							CHANNELS 3 Zrotation Yrotation Xrotation
							End Site
							{
								OFFSET -8.1826 0.0000 0.0000
							}
						}
					}
				}
			}
			JOINT lclavicle
			{
				OFFSET 0.0000 28.0009 0.0000
				CHANNELS 3 Zrotation Yrotation Xrotation
				JOINT lhumerus 
				{
					OFFSET 18.5725 5.5939 0.0000
					CHANNELS 3 Zrotation Yrotation Xrotation
					JOINT lradius  
					{
						OFFSET 24.8459 0.0000 0.0000
						CHANNELS 3 Zrotation Yrotation Xrotation
						JOINT lhand    
						{
							OFFSET 24.5477 0.0000 0.0000
							CHANNELS 3 Zrotation Yrotation Xrotation
							End Site
							{
								OFFSET 8.1826 0.0000 0.0000
							}
						}
					}
				}
			}
			JOINT head     
			{
				OFFSET 0.0000 35.2030 0.0000
				CHANNELS 3 Zrotation Yrotation Xrotation
				End Site
				{
					OFFSET 0.0000 11.7343 0.0000
				}
			}
		}
		JOINT rfemur   
		{
			OFFSET -8.2817 0.0000 0.0000
			CHANNELS 3 Zrotation Yrotation Xrotation
			JOINT rtibia   
			{
				OFFSET 0.0000 -43.3627 0.0000
				CHANNELS 3 Zrotation Yrotation Xrotation
				JOINT rfoot    
				{
					OFFSET 0.0000 -38.2947 0.0000
					CHANNELS 3 Zrotation Yrotation Xrotation
					JOINT rtoes    
					{
						OFFSET 0.0000 0.0000 16.6054
						CHANNELS 3 Zrotation Yrotation Xrotation
						End Site
						{
							OFFSET 0.0000 0.0000 5.5351
						}
					}
				}
			}
		}
		JOINT lfemur   
		{
			OFFSET 8.2817 0.0000 0.0000
			CHANNELS 3 Zrotation Yrotation Xrotation
			JOINT ltibia   
			{
				OFFSET 0.0000 -43.3627 0.0000
				CHANNELS 3 Zrotation Yrotation Xrotation
				JOINT lfoot    
				{
					OFFSET 0.0000 -38.2947 0.0000
					CHANNELS 3 Zrotation Yrotation Xrotation
					JOINT ltoes    
					{
						OFFSET 0.0000 0.0000 16.6054
						CHANNELS 3 Zrotation Yrotation Xrotation
						End Site
						{
							OFFSET 0.0000 0.0000 5.5351
						}
					}
				}
			}
		}
	}
}
MOTION
Frames: 19
Frame Time: .0333333
-13.204 77.991 -3.6935 -86.2657 84.7622 -65.5966 0 -0 0 4.0786 -8.39599 23.1818 22.2094 -11.2739 -3.6232e-05 60.4791 -22.2055 0.855861 -1.33352e-06 83.857 -1.48467e-06 -13.8961 4.33566 -0.528578 -18.1563 15.1731 0.000132807 -41.0485 -6.13893 -4.44047 180 -64.356 -180 0.888992 3.04325 0.0236001 -2.72244 12.6194 -7.92162 12.6448 -10.6956 -61.9176 -0 -0 32.7236 -4.37981e-06 2.61114 5.41138 0.246404 6.17969e-06 -60.2976 -3.05885 8.75364 -21.1545 -0 -0 54.0269 -5.70697e-05 11.5246 -16.9298 -3.39793 -1.87598e-05 -48.6702 
-11.842 77.86 -3.6659 -88.6093 84.844 -67.943 0 -0 0 4.28145 -8.527 23.1496 22.187 -11.4632 2.47479e-05 60.3797 -22.6428 0.516791 -1.98506e-06 84.1498 -2.19879e-06 -13.755 4.41953 -0.533278 -18.2472 15.3812 2.67644e-05 -40.9343 -5.40219 -4.46817 180 -63.5653 -180 0.801499 2.97174 0.0208002 -2.49923 12.493 -8.01522 12.4123 -10.4988 -61.6017 -0 -0 31.6128 9.94906e-06 3.42474 6.50688 0.388499 -7.6263e-06 -62.0006 -2.88443 8.75027 -19.9489 -0 -0 53.4571 1.09373e-05 11.4689 -16.4669 -3.29146 -7.06262e-05 -50.3696 
-10.466 77.697 -3.6378 -90.8664 84.9036 -70.1998 0 -0 0 4.49841 -8.63751 23.0814 22.1397 -11.6271 5.81477e-05 60.2733 -23.0502 0.218993 -2.29787e-06 84.4119 -2.08415e-06 -13.622 4.49004 -0.536509 -18.3734 15.5749 5.13321e-05 -40.8487 -4.60077 -4.44046 180 -62.8377 -180 0.687188 2.88465 0.0173 -2.30692 12.3658 -8.14448 12.0747 -10.2423 -61.3247 -0 -0 31.0226 -5.99131e-06 4.09778 7.62826 0.544895 5.76785e-06 -63.3244 -2.70224 8.79699 -18.7692 -0 -0 52.9494 -7.14349e-05 11.3732 -15.9771 -3.16901 2.78114e-05 -52.4118 
-9.0768 77.502 -3.6078 -92.9696 84.9418 -72.302 0 -0 0 4.74565 -8.72273 22.9861 22.0734 -11.7588 0.000137127 60.1522 -23.4275 -0.0492606 -0 84.6631 -0 -13.483 4.54739 -0.537802 -18.5366 15.8 5.28713e-05 -40.8071 -3.80737 -4.33082 180 -62.2102 180 0.534794 2.77084 0.0129 -2.16054 12.2398 -8.32548 11.6529 -9.9249 -61.1093 -0 -0 30.9704 1.57724e-06 4.6465 8.75044 0.708416 -2.73347e-06 -64.2483 -2.49797 8.8949 -17.6243 -0 -0 52.5191 9.08201e-05 11.2244 -15.4297 -3.02239 4.24413e-05 -54.9086 
-7.6779 77.279 -3.575 -94.8913 84.9245 -74.2207 0 -0 0 5.03804 -8.7882 22.8695 21.9776 -11.8543 1.16244e-05 60.0181 -23.7667 -0.282324 -2.79786e-06 84.8799 -3.05956e-06 -13.3458 4.60035 -0.538502 -18.7401 16.018 -0.000112297 -40.8218 -2.95848 -4.176 180 -61.6613 180 0.336308 2.62332 0.00770047 -2.07256 12.1257 -8.56428 11.1863 -9.55963 -60.9737 -0 -0 31.4484 3.17761e-07 5.10959 9.82386 0.8741 3.53125e-06 -64.6166 -2.25781 9.04116 -16.5217 -0 -0 52.1856 4.78959e-05 11.0128 -14.8345 -2.85261 1.26624e-06 -57.5724 
-6.2704 77.033 -3.5381 -96.581 84.8639 -75.9117 0 -0 0 5.3905 -8.83564 22.7406 21.8548 -11.9045 0.00014602 59.8716 -24.0616 -0.491497 -3.17559e-06 85.0794 -2.91393e-06 -13.2045 4.65375 -0.538888 -18.9829 16.2244 0.000190981 -40.9112 -2.05681 -3.98134 180 -61.1957 -180 0.0903003 2.4388 0.00190001 -2.04942 12.0262 -8.86962 10.7174 -9.1651 -60.9214 -0 -0 32.4252 -1.18047e-06 5.5192 10.7904 1.03641 1.15758e-05 -64.3307 -1.96645 9.22999 -15.467 -0 -0 51.9675 -4.42848e-05 10.7445 -14.1828 -2.66188 7.26327e-05 -60.227 
-4.8548 76.766 -3.4967 -98.048 84.7475 -77.3939 0 -0 0 5.80864 -8.86292 22.6215 21.7175 -11.9135 5.51483e-05 59.6999 -24.3017 -0.683344 -6.52229e-06 85.264 -6.77086e-06 -13.0527 4.7113 -0.539317 -19.2537 16.4552 0.000155034 -41.106 -1.16348 -3.72312 180 -60.8517 -180 -0.201795 2.22528 -0.00389987 -2.0901 11.9325 -9.25153 10.2893 -8.77303 -60.9597 -0 -0 33.8736 -2.21779e-05 5.9143 11.5524 1.18849 3.78015e-06 -62.92 -1.6163 9.45133 -14.4624 -0 -0 51.8907 3.45479e-06 10.443 -13.4535 -2.45532 5.20498e-05 -62.8121 
-3.4343 76.486 -3.4491 -99.3224 84.5644 -78.6961 0 -0 0 6.30542 -8.87845 22.5134 21.5662 -11.8695 5.28445e-05 59.5031 -24.4805 -0.867142 -3.91663e-06 85.4088 -3.61455e-06 -12.8941 4.77723 -0.540117 -19.555 16.6552 -9.91939e-05 -41.421 -0.199101 -3.44563 180 -60.5924 -180 -0.527095 1.98595 -0.00910014 -2.18934 11.8506 -9.70784 9.94807 -8.40611 -61.0623 -0 -0 35.6896 3.01408e-05 6.30027 12.0519 1.32051 -1.60165e-06 -60.5494 -1.19511 9.69578 -13.5238 -0 -0 51.9753 -3.23092e-05 10.1388 -12.6654 -2.24528 6.15838e-05 -64.9338 
-2.0099 76.198 -3.3965 -100.468 84.3096 -79.8918 0 -0 0 6.87647 -8.87879 22.4393 21.4226 -11.7811 -6.58255e-05 59.2693 -24.5845 -1.05043 -4.02478e-06 85.5344 -3.7227e-06 -12.7274 4.85143 -0.541405 -19.8667 16.8585 2.21022e-05 -41.8838 0.760956 -3.11851 180 -60.4565 -180 -0.876114 1.74421 -0.0133004 -2.33208 11.7598 -10.2419 9.72918 -8.10557 -61.22 -0 -0 37.8161 2.54576e-05 6.69094 12.2009 1.42025 2.71279e-05 -57.0549 -0.704969 9.94673 -12.6555 -0 -0 52.2455 3.75694e-05 9.88316 -11.8069 -2.04162 2.37445e-05 -66.5116 
-0.5893 75.91 -3.3376 -101.52 83.9853 -81.0062 0 -0 0 7.52513 -8.86696 22.3916 21.2943 -11.6416 -1.07052e-06 58.9968 -24.605 -1.24295 -4.1115e-06 85.6251 -3.80939e-06 -12.5609 4.93214 -0.543115 -20.1879 17.0268 -6.80728e-07 -42.5006 1.76556 -2.77331 180 -60.4239 -180 -1.22623 1.50925 -0.0161994 -2.49925 11.6566 -10.8456 9.65286 -7.87909 -61.4 -0 -0 40.1217 -3.18423e-05 7.05374 11.9698 1.47011 6.33416e-06 -52.7376 -0.14457 10.195 -11.8897 -0 -0 52.7203 5.40518e-06 9.72672 -10.9067 -1.85757 7.67305e-06 -67.2688 
0.8211 75.631 -3.2732 -102.559 83.5799 -82.1149 0 -0 0 8.24348 -8.83921 22.3709 21.2011 -11.4589 -1.38204e-06 58.6773 -24.5306 -1.45127 -3.35145e-06 85.7012 -3.61304e-06 -12.4014 5.0151 -0.54522 -20.5071 17.1626 6.83995e-05 -43.2818 2.79018 -2.4067 180 -60.5043 -180 -1.55847 1.29972 -0.017701 -2.66616 11.5235 -11.5104 9.72509 -7.73822 -61.5809 -0 -0 42.5088 -4.37333e-06 7.3614 11.3579 1.45745 1.6123e-05 -47.9721 0.476531 10.4277 -11.252 -0 -0 53.4201 1.0145e-06 9.7242 -9.98773 -1.70238 2.53859e-05 -67.0358 
2.2113 75.367 -3.2043 -103.61 83.1284 -83.2268 0 -0 0 9.01481 -8.7917 22.3658 21.1549 -11.2376 4.75701e-05 58.3113 -24.3509 -1.68083 -1.94837e-06 85.7262 -2.0994e-06 -12.2582 5.094 -0.547383 -20.817 17.2595 -0.000194599 -44.2219 3.82678 -2.02566 180 -60.7041 180 -1.84906 1.12519 -0.0182006 -2.80366 11.3504 -12.2238 9.93227 -7.67521 -61.7455 -0 -0 44.8715 2.39817e-06 7.57555 10.4071 1.37617 -2.30649e-05 -43.2921 1.14067 10.6353 -10.7792 -0 -0 54.3571 5.67426e-06 9.92196 -9.09385 -1.58372 -5.40483e-06 -65.6415 
3.5751 75.125 -3.132 -104.758 82.6137 -84.4208 0 -0 0 9.82634 -8.7187 22.3747 21.1736 -10.989 4.70106e-05 57.8963 -24.0631 -1.93903 -0 85.7109 -0 -12.1447 5.16333 -0.549621 -21.1073 17.3197 6.30457e-05 -45.3082 4.84211 -1.62271 180 -61.0342 -180 -2.08223 1.002 -0.0181993 -2.88664 11.1139 -12.972 10.26 -7.69238 -61.8736 -0 -0 47.141 -2.04661e-07 7.67458 9.17548 1.23099 4.17113e-07 -39.1336 1.83392 10.8088 -10.4957 -0 -0 55.5411 -2.63421e-06 10.3495 -8.2762 -1.50581 -1.04024e-05 -62.9008 
4.904 74.91 -3.0571 -106.06 82.0552 -85.7381 0 -0 0 10.6646 -8.61506 22.3795 21.2639 -10.7217 -4.8126e-05 57.4407 -23.665 -2.23202 -0 85.6659 -0 -12.0702 5.21697 -0.551919 -21.3759 17.3414 -6.70113e-06 -46.5132 5.82102 -1.19904 180 -61.5044 -180 -2.24175 0.931603 -0.0181995 -2.89248 10.8027 -13.739 10.6852 -7.77499 -61.9591 -0 -0 49.2534 8.26042e-06 7.63775 7.74033 1.03469 -9.99238e-07 -35.8101 2.54127 10.9445 -10.4325 -0 -0 56.9728 2.62671e-06 11.012 -7.60768 -1.47577 1.92251e-05 -58.5921 
6.1902 74.726 -2.9848 -107.51 81.4787 -87.1635 0 -0 0 11.4844 -8.47653 22.372 21.4295 -10.4434 -7.19688e-05 56.9612 -23.1537 -2.56078 -4.06319e-06 85.5772 -3.76111e-06 -12.0441 5.24892 -0.55409 -21.6159 17.3236 -6.34988e-05 -47.8026 6.75268 -0.759273 180 -62.12 180 -2.31222 0.897701 -0.0181 -2.79541 10.4147 -14.5086 11.1575 -7.90595 -61.9978 -0 -0 51.1604 5.15178e-06 7.45946 6.19047 0.808887 -2.61074e-06 -33.5716 3.22114 11.0383 -10.6101 -0 -0 58.6345 2.26214e-05 11.9013 -7.14398 -1.5014 1.25478e-06 -52.8092 
7.4304 74.574 -2.9179 -109.157 80.9014 -88.7411 0 -0 0 12.2683 -8.30063 22.3468 21.6688 -10.1639 -6.08832e-05 56.474 -22.5344 -2.93005 -7.49393e-06 85.4372 -7.57006e-06 -12.0754 5.2563 -0.556375 -21.8249 17.273 7.10241e-05 -49.1355 7.60868 -0.29358 180 -62.8945 -180 -2.29196 0.892796 -0.0178996 -2.58591 9.94227 -15.2664 11.6473 -8.07832 -61.9878 -0 -0 52.8461 -6.05984e-06 7.14634 4.60223 0.576391 -1.328e-06 -32.4226 3.85591 11.0894 -11.0354 -0 -0 60.4992 2.55846e-05 12.9808 -6.92709 -1.59256 1.43421e-05 -45.7134 
8.6227 74.456 -2.86 -111.019 80.3432 -90.4884 0 -0 0 12.9895 -8.08701 22.3005 21.972 -9.88899 8.28269e-05 56.0011 -21.817 -3.34406 -0 85.2705 -0 -12.1677 5.23805 -0.558715 -22.0019 17.1967 3.06964e-05 -50.4662 8.36964 0.205661 180 -63.8402 -180 -2.18512 0.902497 -0.0172 -2.26116 9.38698 -16.001 12.1192 -8.28383 -61.9317 -0 -0 54.3037 -1.9907e-06 6.71234 3.05133 0.358897 -1.16883e-08 -32.2973 4.42292 11.0959 -11.7066 -0 -0 62.5248 2.98506e-05 14.2007 -6.9475 -1.75324 9.34895e-06 -37.8798 
9.7665 74.369 -2.8141 -113.133 79.8004 -92.4452 0 -0 0 13.6324 -7.83721 22.2348 22.3242 -9.62504 1.39848e-05 55.5683 -21.0101 -3.80242 -6.91351e-06 85.0614 -6.98965e-06 -12.3195 5.19467 -0.560978 -22.1502 17.0983 -0.000179064 -51.7518 9.02343 0.745135 180 -64.9629 -180 -2.00195 0.912905 -0.0159996 -1.82978 8.75512 -16.7022 12.5433 -8.51338 -61.832 -0 -0 55.538 -2.09936e-06 6.17503 1.60426 0.1735 5.31246e-07 -33.0308 4.90711 11.0544 -12.6113 -0 -0 64.6643 1.4462e-05 15.5001 -7.14302 -1.97517 -3.84581e-06 -30.1367 
10.863 74.314 -2.785 -115.486 79.3016 -94.6048 0 -0 0 14.1767 -7.55551 22.1547 22.7053 -9.36901 -3.54611e-05 55.1992 -20.1311 -4.30718 -0 84.8367 -0 -12.5293 5.12883 -0.563388 -22.2673 16.9837 5.20132e-05 -52.9508 9.56003 1.33307 180 -66.2708 -180 -1.75853 0.917195 -0.0141002 -1.30615 8.05988 -17.362 12.8875 -8.76273 -61.6939 -0 -0 56.5703 -3.75195e-07 5.55851 0.310198 0.0301996 4.34119e-08 -34.3964 5.28696 10.9597 -13.7302 -0 -0 66.8638 4.79892e-06 16.8131 -7.41384 -2.23291 4.89535e-06 -23.4201 
